<mxfile host="app.diagrams.net" agent="Mozilla/5.0 (X11; Ubuntu; Linux x86_64; rv:132.0) Gecko/20100101 Firefox/132.0" version="24.8.4">
  <diagram name="Page-1" id="uGTKX4jt4L-9VgY8wQH8">
    <mxGraphModel dx="2284" dy="822" grid="1" gridSize="10" guides="1" tooltips="1" connect="1" arrows="1" fold="1" page="1" pageScale="1" pageWidth="850" pageHeight="1100" math="0" shadow="0">
      <root>
        <mxCell id="0" />
        <mxCell id="1" parent="0" />
        <mxCell id="FEGHOh97G0aMoszQ8Zkd-1" value="&lt;div&gt;21,22,23,&lt;/div&gt;&lt;div&gt;80,3389&lt;/div&gt;" style="ellipse;whiteSpace=wrap;html=1;aspect=fixed;" parent="1" vertex="1">
          <mxGeometry x="100" y="220" width="80" height="80" as="geometry" />
        </mxCell>
        <mxCell id="FEGHOh97G0aMoszQ8Zkd-2" value="&lt;div&gt;BH&lt;/div&gt;&lt;div&gt;10.50.23.151&lt;/div&gt;" style="text;html=1;align=center;verticalAlign=middle;whiteSpace=wrap;rounded=0;" parent="1" vertex="1">
          <mxGeometry x="110" y="190" width="60" height="30" as="geometry" />
        </mxCell>
        <mxCell id="FEGHOh97G0aMoszQ8Zkd-3" value="10.10.0.40" style="text;html=1;align=center;verticalAlign=middle;whiteSpace=wrap;rounded=0;" parent="1" vertex="1">
          <mxGeometry x="110" y="300" width="60" height="30" as="geometry" />
        </mxCell>
        <mxCell id="FEGHOh97G0aMoszQ8Zkd-4" value="&lt;div&gt;23&lt;/div&gt;&lt;div&gt;(22,80 internal)&lt;br&gt;&lt;/div&gt;" style="ellipse;whiteSpace=wrap;html=1;aspect=fixed;" parent="1" vertex="1">
          <mxGeometry x="100" y="420" width="80" height="80" as="geometry" />
        </mxCell>
        <mxCell id="FEGHOh97G0aMoszQ8Zkd-5" value="&lt;div&gt;T5&lt;/div&gt;&lt;div&gt;10.50.28.46&lt;/div&gt;" style="text;html=1;align=center;verticalAlign=middle;whiteSpace=wrap;rounded=0;" parent="1" vertex="1">
          <mxGeometry x="85" y="390" width="110" height="30" as="geometry" />
        </mxCell>
        <mxCell id="FEGHOh97G0aMoszQ8Zkd-6" value="" style="endArrow=none;html=1;rounded=0;entryX=0.5;entryY=1;entryDx=0;entryDy=0;exitX=0.5;exitY=0;exitDx=0;exitDy=0;" parent="1" source="FEGHOh97G0aMoszQ8Zkd-5" target="FEGHOh97G0aMoszQ8Zkd-3" edge="1">
          <mxGeometry width="50" height="50" relative="1" as="geometry">
            <mxPoint x="110" y="380" as="sourcePoint" />
            <mxPoint x="160" y="330" as="targetPoint" />
          </mxGeometry>
        </mxCell>
        <mxCell id="FEGHOh97G0aMoszQ8Zkd-7" value="" style="shape=link;html=1;rounded=0;" parent="1" edge="1">
          <mxGeometry width="100" relative="1" as="geometry">
            <mxPoint x="-120" y="600" as="sourcePoint" />
            <mxPoint x="400" y="600" as="targetPoint" />
          </mxGeometry>
        </mxCell>
        <mxCell id="FEGHOh97G0aMoszQ8Zkd-8" value="" style="endArrow=none;html=1;rounded=0;entryX=0.5;entryY=1;entryDx=0;entryDy=0;exitX=0.5;exitY=0;exitDx=0;exitDy=0;" parent="1" edge="1">
          <mxGeometry width="50" height="50" relative="1" as="geometry">
            <mxPoint x="139.5" y="580" as="sourcePoint" />
            <mxPoint x="139.5" y="520" as="targetPoint" />
          </mxGeometry>
        </mxCell>
        <mxCell id="FEGHOh97G0aMoszQ8Zkd-9" value="&lt;div&gt;21,80,1111,&lt;/div&gt;&lt;div&gt;2222,3333&lt;/div&gt;" style="ellipse;whiteSpace=wrap;html=1;aspect=fixed;" parent="1" vertex="1">
          <mxGeometry x="-150" y="710" width="80" height="80" as="geometry" />
        </mxCell>
        <mxCell id="FEGHOh97G0aMoszQ8Zkd-10" value="80,4444" style="ellipse;whiteSpace=wrap;html=1;aspect=fixed;" parent="1" vertex="1">
          <mxGeometry x="-50" y="710" width="80" height="80" as="geometry" />
        </mxCell>
        <mxCell id="FEGHOh97G0aMoszQ8Zkd-11" value="&lt;div&gt;80,5555&lt;/div&gt;(51798)" style="ellipse;whiteSpace=wrap;html=1;aspect=fixed;" parent="1" vertex="1">
          <mxGeometry x="50" y="710" width="80" height="80" as="geometry" />
        </mxCell>
        <mxCell id="FEGHOh97G0aMoszQ8Zkd-12" value="" style="ellipse;whiteSpace=wrap;html=1;aspect=fixed;" parent="1" vertex="1">
          <mxGeometry x="250" y="710" width="80" height="80" as="geometry" />
        </mxCell>
        <mxCell id="FEGHOh97G0aMoszQ8Zkd-13" value="" style="ellipse;whiteSpace=wrap;html=1;aspect=fixed;" parent="1" vertex="1">
          <mxGeometry x="350" y="710" width="80" height="80" as="geometry" />
        </mxCell>
        <mxCell id="FEGHOh97G0aMoszQ8Zkd-14" value="" style="ellipse;whiteSpace=wrap;html=1;aspect=fixed;" parent="1" vertex="1">
          <mxGeometry x="450" y="710" width="80" height="80" as="geometry" />
        </mxCell>
        <mxCell id="FEGHOh97G0aMoszQ8Zkd-15" value="" style="endArrow=none;html=1;rounded=0;entryX=0.5;entryY=1;entryDx=0;entryDy=0;exitX=0.5;exitY=0;exitDx=0;exitDy=0;" parent="1" edge="1">
          <mxGeometry width="50" height="50" relative="1" as="geometry">
            <mxPoint x="-100.5" y="670" as="sourcePoint" />
            <mxPoint x="-100.5" y="610" as="targetPoint" />
          </mxGeometry>
        </mxCell>
        <mxCell id="FEGHOh97G0aMoszQ8Zkd-16" value="" style="endArrow=none;html=1;rounded=0;entryX=0.5;entryY=1;entryDx=0;entryDy=0;exitX=0.5;exitY=0;exitDx=0;exitDy=0;" parent="1" edge="1">
          <mxGeometry width="50" height="50" relative="1" as="geometry">
            <mxPoint y="670" as="sourcePoint" />
            <mxPoint y="610" as="targetPoint" />
          </mxGeometry>
        </mxCell>
        <mxCell id="FEGHOh97G0aMoszQ8Zkd-17" value="" style="endArrow=none;html=1;rounded=0;entryX=0.5;entryY=1;entryDx=0;entryDy=0;exitX=0.5;exitY=0;exitDx=0;exitDy=0;" parent="1" edge="1">
          <mxGeometry width="50" height="50" relative="1" as="geometry">
            <mxPoint x="99" y="670" as="sourcePoint" />
            <mxPoint x="99" y="610" as="targetPoint" />
          </mxGeometry>
        </mxCell>
        <mxCell id="FEGHOh97G0aMoszQ8Zkd-18" value="" style="endArrow=none;html=1;rounded=0;entryX=0.5;entryY=1;entryDx=0;entryDy=0;exitX=0.5;exitY=0;exitDx=0;exitDy=0;" parent="1" edge="1">
          <mxGeometry width="50" height="50" relative="1" as="geometry">
            <mxPoint x="289.5" y="670" as="sourcePoint" />
            <mxPoint x="289.5" y="610" as="targetPoint" />
          </mxGeometry>
        </mxCell>
        <mxCell id="FEGHOh97G0aMoszQ8Zkd-19" value="" style="endArrow=none;html=1;rounded=0;entryX=0.5;entryY=1;entryDx=0;entryDy=0;exitX=0.5;exitY=0;exitDx=0;exitDy=0;" parent="1" edge="1">
          <mxGeometry width="50" height="50" relative="1" as="geometry">
            <mxPoint x="389.5" y="670" as="sourcePoint" />
            <mxPoint x="389.5" y="610" as="targetPoint" />
          </mxGeometry>
        </mxCell>
        <mxCell id="FEGHOh97G0aMoszQ8Zkd-20" value="" style="endArrow=none;html=1;rounded=0;entryX=0.5;entryY=1;entryDx=0;entryDy=0;exitX=0.5;exitY=0;exitDx=0;exitDy=0;" parent="1" edge="1">
          <mxGeometry width="50" height="50" relative="1" as="geometry">
            <mxPoint x="479.5" y="670" as="sourcePoint" />
            <mxPoint x="479.5" y="610" as="targetPoint" />
          </mxGeometry>
        </mxCell>
        <mxCell id="FEGHOh97G0aMoszQ8Zkd-21" value="SSH-02&lt;br&gt;&lt;div&gt;192.168.0.20&lt;/div&gt;" style="text;html=1;align=center;verticalAlign=middle;whiteSpace=wrap;rounded=0;" parent="1" vertex="1">
          <mxGeometry x="-140" y="680" width="60" height="30" as="geometry" />
        </mxCell>
        <mxCell id="FEGHOh97G0aMoszQ8Zkd-23" value="SSH-03&lt;br&gt;&lt;div&gt;192.168.0.30&lt;/div&gt;" style="text;html=1;align=center;verticalAlign=middle;whiteSpace=wrap;rounded=0;" parent="1" vertex="1">
          <mxGeometry x="-40" y="680" width="60" height="30" as="geometry" />
        </mxCell>
        <mxCell id="FEGHOh97G0aMoszQ8Zkd-24" value="&lt;div&gt;SSH-04&lt;br&gt;&lt;/div&gt;&lt;div&gt;192.168.0.40&lt;/div&gt;" style="text;html=1;align=center;verticalAlign=middle;whiteSpace=wrap;rounded=0;" parent="1" vertex="1">
          <mxGeometry x="60" y="680" width="60" height="30" as="geometry" />
        </mxCell>
        <mxCell id="FEGHOh97G0aMoszQ8Zkd-25" value="192.168.0.200" style="text;html=1;align=center;verticalAlign=middle;whiteSpace=wrap;rounded=0;" parent="1" vertex="1">
          <mxGeometry x="260" y="680" width="60" height="30" as="geometry" />
        </mxCell>
        <mxCell id="FEGHOh97G0aMoszQ8Zkd-26" value="192.168.0.201" style="text;html=1;align=center;verticalAlign=middle;whiteSpace=wrap;rounded=0;" parent="1" vertex="1">
          <mxGeometry x="360" y="680" width="60" height="30" as="geometry" />
        </mxCell>
        <mxCell id="FEGHOh97G0aMoszQ8Zkd-27" value="192.168.0.254" style="text;html=1;align=center;verticalAlign=middle;whiteSpace=wrap;rounded=0;" parent="1" vertex="1">
          <mxGeometry x="460" y="680" width="60" height="30" as="geometry" />
        </mxCell>
        <mxCell id="FEGHOh97G0aMoszQ8Zkd-28" value="" style="shape=flexArrow;endArrow=classic;html=1;rounded=0;" parent="1" edge="1">
          <mxGeometry width="50" height="50" relative="1" as="geometry">
            <mxPoint x="240" y="460" as="sourcePoint" />
            <mxPoint x="240" y="280" as="targetPoint" />
          </mxGeometry>
        </mxCell>
        <mxCell id="FEGHOh97G0aMoszQ8Zkd-29" value="&lt;div&gt;Reverse bing chillin&lt;/div&gt;&lt;div&gt;bing chillin &lt;br&gt;&lt;/div&gt;&lt;div&gt;bing chillin&lt;/div&gt;&lt;div&gt;&lt;br&gt;&lt;/div&gt;&lt;div&gt;do better&lt;br&gt;&lt;/div&gt;" style="text;html=1;align=center;verticalAlign=middle;whiteSpace=wrap;rounded=0;" parent="1" vertex="1">
          <mxGeometry x="260" y="370" width="60" height="30" as="geometry" />
        </mxCell>
        <mxCell id="e0j894PYuPeoqC5ZKq9c-2" value="21,80" style="ellipse;whiteSpace=wrap;html=1;aspect=fixed;" vertex="1" parent="1">
          <mxGeometry x="-150" y="910" width="80" height="80" as="geometry" />
        </mxCell>
        <mxCell id="e0j894PYuPeoqC5ZKq9c-3" value="" style="endArrow=none;html=1;rounded=0;entryX=0.5;entryY=1;entryDx=0;entryDy=0;exitX=0.5;exitY=0;exitDx=0;exitDy=0;" edge="1" parent="1">
          <mxGeometry width="50" height="50" relative="1" as="geometry">
            <mxPoint x="-110.5" y="870" as="sourcePoint" />
            <mxPoint x="-110.5" y="810" as="targetPoint" />
          </mxGeometry>
        </mxCell>
        <mxCell id="e0j894PYuPeoqC5ZKq9c-4" value="SSH-05&lt;br&gt;&lt;div&gt;192.168.0.50&lt;/div&gt;" style="text;html=1;align=center;verticalAlign=middle;whiteSpace=wrap;rounded=0;" vertex="1" parent="1">
          <mxGeometry x="-140" y="880" width="60" height="30" as="geometry" />
        </mxCell>
        <mxCell id="e0j894PYuPeoqC5ZKq9c-5" value="21,23,80" style="ellipse;whiteSpace=wrap;html=1;aspect=fixed;" vertex="1" parent="1">
          <mxGeometry x="50" y="905" width="80" height="80" as="geometry" />
        </mxCell>
        <mxCell id="e0j894PYuPeoqC5ZKq9c-6" value="" style="endArrow=none;html=1;rounded=0;entryX=0.5;entryY=1;entryDx=0;entryDy=0;exitX=0.5;exitY=0;exitDx=0;exitDy=0;" edge="1" parent="1">
          <mxGeometry width="50" height="50" relative="1" as="geometry">
            <mxPoint x="89.5" y="865" as="sourcePoint" />
            <mxPoint x="89.5" y="805" as="targetPoint" />
          </mxGeometry>
        </mxCell>
        <mxCell id="e0j894PYuPeoqC5ZKq9c-7" value="&lt;div&gt;SSH-06&lt;/div&gt;&lt;div&gt;172.16.0.60&lt;br&gt;&lt;/div&gt;" style="text;html=1;align=center;verticalAlign=middle;whiteSpace=wrap;rounded=0;" vertex="1" parent="1">
          <mxGeometry x="60" y="875" width="60" height="30" as="geometry" />
        </mxCell>
        <mxCell id="e0j894PYuPeoqC5ZKq9c-9" value="&lt;div&gt;51700 -&amp;gt; SSH-02:3333&lt;br&gt;&lt;/div&gt;&lt;div&gt;51701 -&amp;gt; SSH-04:5555&lt;/div&gt;&lt;div&gt;51702 -&amp;gt; SSH-06:23&lt;/div&gt;&lt;div&gt;51703 -&amp;gt; SSH-06:22&lt;/div&gt;&lt;div&gt;51704 -&amp;gt; SSH-09:2222&lt;br&gt;&lt;/div&gt;" style="text;html=1;align=center;verticalAlign=middle;whiteSpace=wrap;rounded=0;" vertex="1" parent="1">
          <mxGeometry x="470" y="310" width="160" height="80" as="geometry" />
        </mxCell>
        <mxCell id="e0j894PYuPeoqC5ZKq9c-11" value="&lt;div&gt;51799 reverse to T5 from BH&lt;/div&gt;51798 reverse to SSH-06 from SSH-04" style="text;html=1;align=center;verticalAlign=middle;whiteSpace=wrap;rounded=0;" vertex="1" parent="1">
          <mxGeometry x="670" y="310" width="250" height="30" as="geometry" />
        </mxCell>
        <mxCell id="e0j894PYuPeoqC5ZKq9c-12" value="1337" style="ellipse;whiteSpace=wrap;html=1;aspect=fixed;" vertex="1" parent="1">
          <mxGeometry x="-50" y="1190" width="80" height="80" as="geometry" />
        </mxCell>
        <mxCell id="e0j894PYuPeoqC5ZKq9c-13" value="80,3389" style="ellipse;whiteSpace=wrap;html=1;aspect=fixed;" vertex="1" parent="1">
          <mxGeometry x="50" y="1190" width="80" height="80" as="geometry" />
        </mxCell>
        <mxCell id="e0j894PYuPeoqC5ZKq9c-14" value="21,80,2222" style="ellipse;whiteSpace=wrap;html=1;aspect=fixed;" vertex="1" parent="1">
          <mxGeometry x="150" y="1190" width="80" height="80" as="geometry" />
        </mxCell>
        <mxCell id="e0j894PYuPeoqC5ZKq9c-15" value="" style="endArrow=none;html=1;rounded=0;entryX=0.5;entryY=1;entryDx=0;entryDy=0;exitX=0.5;exitY=0;exitDx=0;exitDy=0;" edge="1" parent="1">
          <mxGeometry width="50" height="50" relative="1" as="geometry">
            <mxPoint x="-10.5" y="1150" as="sourcePoint" />
            <mxPoint x="-10.5" y="1090" as="targetPoint" />
          </mxGeometry>
        </mxCell>
        <mxCell id="e0j894PYuPeoqC5ZKq9c-16" value="" style="endArrow=none;html=1;rounded=0;entryX=0.5;entryY=1;entryDx=0;entryDy=0;exitX=0.5;exitY=0;exitDx=0;exitDy=0;" edge="1" parent="1">
          <mxGeometry width="50" height="50" relative="1" as="geometry">
            <mxPoint x="89.5" y="1150" as="sourcePoint" />
            <mxPoint x="89.5" y="1090" as="targetPoint" />
          </mxGeometry>
        </mxCell>
        <mxCell id="e0j894PYuPeoqC5ZKq9c-17" value="" style="endArrow=none;html=1;rounded=0;entryX=0.5;entryY=1;entryDx=0;entryDy=0;exitX=0.5;exitY=0;exitDx=0;exitDy=0;" edge="1" parent="1">
          <mxGeometry width="50" height="50" relative="1" as="geometry">
            <mxPoint x="179.5" y="1150" as="sourcePoint" />
            <mxPoint x="179.5" y="1090" as="targetPoint" />
          </mxGeometry>
        </mxCell>
        <mxCell id="e0j894PYuPeoqC5ZKq9c-18" value="SSH-07&lt;br&gt;&lt;div&gt;172.16.0.70&lt;/div&gt;" style="text;html=1;align=center;verticalAlign=middle;whiteSpace=wrap;rounded=0;" vertex="1" parent="1">
          <mxGeometry x="-40" y="1160" width="60" height="30" as="geometry" />
        </mxCell>
        <mxCell id="e0j894PYuPeoqC5ZKq9c-19" value="SSH-08&lt;br&gt;&lt;div&gt;172.16.0.80&lt;/div&gt;" style="text;html=1;align=center;verticalAlign=middle;whiteSpace=wrap;rounded=0;" vertex="1" parent="1">
          <mxGeometry x="60" y="1160" width="60" height="30" as="geometry" />
        </mxCell>
        <mxCell id="e0j894PYuPeoqC5ZKq9c-20" value="SSH-09&lt;br&gt;&lt;div&gt;172.16.0.90&lt;/div&gt;" style="text;html=1;align=center;verticalAlign=middle;whiteSpace=wrap;rounded=0;" vertex="1" parent="1">
          <mxGeometry x="160" y="1160" width="60" height="30" as="geometry" />
        </mxCell>
        <mxCell id="e0j894PYuPeoqC5ZKq9c-21" value="" style="endArrow=none;html=1;rounded=0;entryX=0.5;entryY=1;entryDx=0;entryDy=0;exitX=0.5;exitY=0;exitDx=0;exitDy=0;" edge="1" parent="1">
          <mxGeometry width="50" height="50" relative="1" as="geometry">
            <mxPoint x="89.5" y="1060" as="sourcePoint" />
            <mxPoint x="89.5" y="1000" as="targetPoint" />
          </mxGeometry>
        </mxCell>
        <mxCell id="e0j894PYuPeoqC5ZKq9c-22" value="" style="shape=link;html=1;rounded=0;" edge="1" parent="1">
          <mxGeometry width="100" relative="1" as="geometry">
            <mxPoint x="-30" y="1070" as="sourcePoint" />
            <mxPoint x="190" y="1070" as="targetPoint" />
          </mxGeometry>
        </mxCell>
        <mxCell id="e0j894PYuPeoqC5ZKq9c-23" value="23,80" style="ellipse;whiteSpace=wrap;html=1;aspect=fixed;" vertex="1" parent="1">
          <mxGeometry x="160" y="1390" width="80" height="80" as="geometry" />
        </mxCell>
        <mxCell id="e0j894PYuPeoqC5ZKq9c-24" value="" style="endArrow=none;html=1;rounded=0;entryX=0.5;entryY=1;entryDx=0;entryDy=0;exitX=0.5;exitY=0;exitDx=0;exitDy=0;" edge="1" parent="1">
          <mxGeometry width="50" height="50" relative="1" as="geometry">
            <mxPoint x="189.5" y="1350" as="sourcePoint" />
            <mxPoint x="189.5" y="1290" as="targetPoint" />
          </mxGeometry>
        </mxCell>
        <mxCell id="e0j894PYuPeoqC5ZKq9c-25" value="SSH-10&lt;br&gt;&lt;div&gt;172.16.0.100&lt;/div&gt;" style="text;html=1;align=center;verticalAlign=middle;whiteSpace=wrap;rounded=0;" vertex="1" parent="1">
          <mxGeometry x="170" y="1360" width="60" height="30" as="geometry" />
        </mxCell>
      </root>
    </mxGraphModel>
  </diagram>
</mxfile>
